#!OML:ASF X:\für Bonn\!DataBase\2005_08_12_Daniel\c3d\Daniel.ASF
:FULLY-SPECIFIED
:DEGREES
94
root 3.51596 16.5632 -11.7322 -6.71629 191.89 -350.847
lowerback 14.5288 -2.90535 -2.52047
upperback 3.59533 -4.60771 -0.354874
thorax -4.15585 -2.41513 1.87137
lowerneck -1.49494 14.2841 -0.952178
upperneck -2.10616 18.6291 -12.8636
head 0.827805 9.14059 -3.59338
rclavicle -3.43897e-014 -1.59028e-015
rhumerus -54.3395 -7.77744 -77.7644
rradius 39.9072
rwrist 13.5088
rhand -33.7041 34.5338
rfingers 7.12502
rthumb -6.89395 4.66606
lclavicle -3.43897e-014 -1.59028e-015
lhumerus -45.1924 5.47576 97.5152
lradius 121.046
lwrist 17.0776
lhand -16.5077 -15.0744
lfingers 7.12502
lthumb 9.71039 14.6817
rfemur -21.9398 -1.72476 16.2641
rtibia 86.8434
rfoot -7.72064 -4.98875
rtoes -10.2813
lfemur -6.12327 0.796703 -31.434
ltibia 50.1065
lfoot -30.0778 2.13134
ltoes 9.49651
95
root 3.43862 16.6467 -12.0244 -6.60369 192.724 -350.596
lowerback 14.3192 -3.23881 -2.2234
upperback 3.5136 -4.97335 -0.217652
thorax -4.12351 -2.58916 1.89918
lowerneck -1.3873 14.4212 -1.1337
upperneck -2.10466 18.8018 -12.8277
head 0.798736 9.22955 -3.55727
rclavicle -9.91935e-014 2.70347e-014
rhumerus -54.8858 -7.4165 -76.8084
rradius 38.2632
rwrist 14.174
rhand -33.6455 34.7234
rfingers 7.12502
rthumb -6.83734 4.85386
lclavicle -9.91935e-014 2.70347e-014
lhumerus -44.9423 5.10789 97.5073
lradius 121.748
lwrist 17.7752
lhand -16.7312 -15.4022
lfingers 7.12502
lthumb 9.49472 14.3639
rfemur -23.2265 -0.762037 17.0293
rtibia 85.2368
rfoot -8.04585 -4.90123
rtoes -10.3189
lfemur -4.7606 0.273697 -31.1589
ltibia 49.2411
lfoot -29.0005 1.8019
ltoes 9.04506
96
root 3.35949 16.7411 -12.3206 -6.58241 193.559 -350.221
lowerback 14.0631 -3.58849 -1.75688
upperback 3.4966 -5.34472 -0.115706
thorax -4.01786 -2.77235 1.78902
lowerneck -1.39829 14.5646 -1.21175
upperneck -1.98233 19.0104 -12.7359
head 0.835115 9.32891 -3.50173
rclavicle -4.47266e-014 -2.70347e-014
rhumerus -55.6263 -6.60011 -76.3678
rradius 37.0657
rwrist 14.5114
rhand -33.8678 34.6882
rfingers 7.12502
rthumb -7.05194 4.82567
lclavicle -4.47266e-014 -2.70347e-014
lhumerus -44.7316 4.65458 97.2841
lradius 122.301
lwrist 18.1808
lhand -16.72 -15.5694
lfingers 7.12502
lthumb 9.5055 14.1962
rfemur -24.2006 0.27553 17.9093
rtibia 83.2181
rfoot -8.26113 -4.76074
rtoes -10.0049
lfemur -3.37354 -0.165211 -30.6963
ltibia 48.3573
lfoot -27.6664 1.41233
ltoes 9.09013
97
root 3.27418 16.8437 -12.6228 -6.57605 194.467 -349.733
lowerback 13.7404 -3.96116 -1.16093
upperback 3.43782 -5.72374 0.0460087
thorax -3.93004 -2.95752 1.66545
lowerneck -1.37147 14.6655 -1.34885
upperneck -1.78283 19.1614 -12.6547
head 0.8814 9.39425 -3.44362
rclavicle -1.07344e-014 3.49861e-014
rhumerus -56.5368 -5.54533 -76.0498
rradius 36.0946
rwrist 14.7055
rhand -34.2441 34.5804
rfingers 7.12502
rthumb -7.41521 4.73039
lclavicle -1.07344e-014 3.49861e-014
lhumerus -44.7742 4.30968 97.1091
lradius 122.683
lwrist 18.3435
lhand -16.3013 -15.7814
lfingers 7.12502
lthumb 9.90944 13.9654
rfemur -24.9204 1.23031 18.8108
rtibia 80.7931
rfoot -8.44723 -4.51537
rtoes -10.5451
lfemur -2.06651 -0.599807 -30.1073
ltibia 47.4344
lfoot -25.9951 1.11641
ltoes 8.80192
98
root 3.18541 16.9494 -12.9299 -6.59668 195.382 -349.328
lowerback 13.3881 -4.32127 -0.629482
upperback 3.40981 -6.10546 0.175081
thorax -3.79593 -3.14626 1.53793
lowerneck -1.49573 14.7564 -1.64637
upperneck -1.4867 19.3204 -12.387
head 0.946211 9.45635 -3.28714
rclavicle 6.12257e-014 -7.95139e-015
rhumerus -57.4492 -4.48195 -75.8318
rradius 35.3239
rwrist 14.8247
rhand -34.6572 34.4499
rfingers 7.12502
rthumb -7.81392 4.61425
lclavicle 6.12257e-014 -7.95139e-015
lhumerus -44.8272 3.91583 96.887
lradius 122.99
lwrist 18.0938
lhand -15.679 -15.6459
lfingers 7.12502
lthumb 10.5098 14.0713
rfemur -25.395 2.13555 19.5048
rtibia 78.054
rfoot -8.5341 -4.19387
rtoes -11.9457
lfemur -0.791178 -0.925485 -29.5809
ltibia 46.4913
lfoot -23.9117 0.905251
ltoes 8.22537
99
root 3.08797 17.0615 -13.243 -6.60279 196.355 -349
lowerback 12.9611 -4.70722 -0.169845
upperback 3.4067 -6.53836 0.304673
thorax -3.59091 -3.3617 1.44726
lowerneck -1.77478 14.8582 -1.95079
upperneck -1.07775 19.5135 -12.1405
head 1.07631 9.52182 -3.11821
rclavicle -2.22639e-014 2.54444e-014
rhumerus -58.3182 -3.3948 -75.662
rradius 34.7762
rwrist 14.9892
rhand -35.0917 34.2489
rfingers 7.12502
rthumb -8.23328 4.42928
lclavicle -2.22639e-014 2.54444e-014
lhumerus -44.8546 3.3106 96.532
lradius 123.44
lwrist 17.9237
lhand -14.9322 -15.1554
lfingers 7.12502
lthumb 11.2302 14.5241
rfemur -25.6675 3.09099 20.0048
rtibia 75.0372
rfoot -8.56558 -3.88087
rtoes -13.3306
lfemur 0.462349 -1.32754 -29.1676
ltibia 45.4998
lfoot -21.627 0.796907
ltoes 7.29657
100
root 2.99332 17.1703 -13.5539 -6.5495 197.319 -348.816
lowerback 12.492 -5.04206 0.204117
upperback 3.38726 -6.92112 0.341449
thorax -3.38715 -3.55015 1.29331
lowerneck -2.0386 14.9148 -2.10308
upperneck -0.646585 19.6509 -11.9305
head 1.22746 9.55959 -2.98556
rclavicle 3.79679e-014 3.18055e-015
rhumerus -59.3616 -2.56017 -75.5576
rradius 34.5466
rwrist 14.9503
rhand -35.3354 34.158
rfingers 7.12502
rthumb -8.46846 4.34775
lclavicle 3.79679e-014 3.18055e-015
lhumerus -44.9575 2.23623 96.0137
lradius 123.96
lwrist 17.5357
lhand -14.4089 -14.4648
lfingers 7.12502
lthumb 11.7348 15.1865
rfemur -25.881 4.27053 20.3255
rtibia 71.8938
rfoot -8.5004 -3.73629
rtoes -14.4944
lfemur 1.62696 -1.62595 -28.8162
ltibia 44.5233
lfoot -19.0848 0.531497
ltoes 6.91682
101
root 2.88942 17.2755 -13.8681 -6.47909 198.224 -348.658
lowerback 11.9568 -5.35086 0.572595
upperback 3.35842 -7.2743 0.37771
thorax -3.16101 -3.7233 1.12764
lowerneck -2.24062 14.9782 -2.20288
upperneck -0.171989 19.7978 -11.7288
head 1.38923 9.60175 -2.8665
rclavicle -8.48811e-014 3.02153e-014
rhumerus -60.5109 -1.82181 -75.4627
rradius 34.6171
rwrist 14.8408
rhand -35.4084 33.9484
rfingers 7.12502
rthumb -8.53887 4.14106
lclavicle -8.48811e-014 3.02153e-014
lhumerus -45.1506 1.09503 95.4715
lradius 124.465
lwrist 17.1632
lhand -13.8529 -13.9687
lfingers 7.12502
lthumb 12.2709 15.6513
rfemur -26.0008 5.58589 20.492
rtibia 68.6275
rfoot -8.37502 -3.80806
rtoes -14.6418
lfemur 2.73717 -1.8402 -28.4979
ltibia 43.59
lfoot -16.4575 0.314165
ltoes 6.36631
102
root 2.78214 17.3833 -14.1821 -6.35738 199.11 -348.562
lowerback 11.4197 -5.6463 0.815164
upperback 3.30477 -7.62684 0.455503
thorax -2.94153 -3.89508 1.07014
lowerneck -2.45653 15.0511 -2.29263
upperneck 0.293328 19.9537 -11.6055
head 1.56147 9.64463 -2.77243
rclavicle -1.00784e-013 1.11319e-014
rhumerus -61.5863 -1.34759 -75.0924
rradius 34.7316
rwrist 14.9032
rhand -35.2122 34.105
rfingers 7.12502
rthumb -8.34956 4.29005
lclavicle -1.00784e-013 1.11319e-014
lhumerus -45.3452 0.00447104 94.9694
lradius 124.925
lwrist 16.7663
lhand -13.2171 -13.7161
lfingers 7.12502
lthumb 12.8839 15.8662
rfemur -26.1069 6.86712 20.4813
rtibia 65.2911
rfoot -8.03534 -4.00698
rtoes -14.1323
lfemur 3.68342 -1.86948 -28.1384
ltibia 42.7919
lfoot -13.7305 -0.0552527
ltoes 6.02097
103
root 2.67369 17.4866 -14.4958 -6.18137 200 -348.428
lowerback 10.7704 -5.9029 1.13175
upperback 3.25684 -7.92575 0.486558
thorax -2.67331 -4.03974 0.900385
lowerneck -2.64156 15.0701 -2.16384
upperneck 0.764975 20.0402 -11.5169
head 1.75563 9.65706 -2.72431
rclavicle -4.31363e-014 -2.8625e-014
rhumerus -62.6661 -1.02439 -74.8812
rradius 34.9762
rwrist 14.8094
rhand -34.8954 34.0114
rfingers 7.12502
rthumb -8.04384 4.18447
lclavicle -4.31363e-014 -2.8625e-014
lhumerus -45.6107 -1.31043 94.422
lradius 125.337
lwrist 16.4193
lhand -12.7142 -13.7475
lfingers 7.12502
lthumb 13.3686 15.8036
rfemur -26.2475 8.04234 20.4042
rtibia 61.8645
rfoot -7.43806 -4.34626
rtoes -13.2685
lfemur 4.42456 -1.77793 -27.6749
ltibia 42.1631
lfoot -10.9712 -0.482513
ltoes 5.37829
104
root 2.56472 17.583 -14.8107 -5.92575 200.896 -348.38
lowerback 10.0624 -6.16515 1.29824
upperback 3.19919 -8.25209 0.545969
thorax -2.36088 -4.19759 0.832726
lowerneck -2.89647 15.112 -2.07681
upperneck 1.24241 20.1603 -11.4453
head 1.96407 9.68148 -2.66845
rclavicle 1.35174e-014 4.77083e-015
rhumerus -63.7116 -0.450379 -74.8922
rradius 35.4069
rwrist 14.173
rhand -34.4549 33.8738
rfingers 7.12502
rthumb -7.61862 4.03104
lclavicle 1.35174e-014 4.77083e-015
lhumerus -45.8144 -2.61363 93.8493
lradius 125.621
lwrist 16.1886
lhand -12.4187 -14.1061
lfingers 7.12502
lthumb 13.6534 15.426
rfemur -26.4424 9.12365 20.117
rtibia 58.3577
rfoot -6.7225 -4.62517
rtoes -12.34
lfemur 5.01238 -1.681 -27.2881
ltibia 41.7272
lfoot -8.32713 -0.915779
ltoes 4.52945
105
root 2.45588 17.6725 -15.1276 -5.61202 201.808 -348.306
lowerback 9.27805 -6.39092 1.48018
upperback 3.1085 -8.53062 0.603973
thorax -2.04408 -4.33013 0.73728
lowerneck -3.08309 15.1211 -1.78291
upperneck 1.74432 20.2338 -11.4697
head 2.20369 9.68374 -2.67755
rclavicle 1.90833e-014 -1.59028e-015
rhumerus -64.7803 0.0970073 -74.9817
rradius 35.8495
rwrist 13.4627
rhand -33.9876 33.8706
rfingers 7.12502
rthumb -7.16759 4.01202
lclavicle 1.90833e-014 -1.59028e-015
lhumerus -46.1028 -3.97076 93.3013
lradius 125.821
lwrist 15.8656
lhand -12.2157 -14.7635
lfingers 7.12502
lthumb 13.8492 14.7554
rfemur -26.6843 10.2738 19.7329
rtibia 54.7664
rfoot -6.0005 -4.80024
rtoes -11.5143
lfemur 5.4118 -1.57922 -26.8298
ltibia 41.5161
lfoot -5.86151 -1.35958
ltoes 3.60254
106
root 2.3448 17.749 -15.4434 -5.28344 202.695 -348.253
lowerback 8.51608 -6.61467 1.65165
upperback 2.96602 -8.80781 0.667437
thorax -1.79128 -4.46073 0.654596
lowerneck -3.08577 15.1246 -1.54486
upperneck 2.11946 20.2728 -11.4744
head 2.36018 9.68285 -2.69533
rclavicle 8.94531e-014 -3.18055e-015
rhumerus -65.9062 0.80666 -75.1952
rradius 36.3686
rwrist 12.563
rhand -33.487 33.6282
rfingers 7.12502
rthumb -6.68437 3.75372
lclavicle 8.94531e-014 -3.18055e-015
lhumerus -46.4191 -5.17082 92.7941
lradius 125.902
lwrist 15.6272
lhand -12.0692 -15.5692
lfingers 7.12502
lthumb 13.9903 13.94
rfemur -26.8983 11.3954 19.243
rtibia 51.1662
rfoot -5.39919 -5.04663
rtoes -10.6702
lfemur 5.7184 -1.51449 -26.4159
ltibia 41.5248
lfoot -3.57794 -1.83722
ltoes 2.53272
107
root 2.23323 17.8115 -15.7584 -4.9164 203.593 -348.25
lowerback 7.68466 -6.81638 1.82629
upperback 2.85102 -9.06362 0.687725
thorax -1.47964 -4.58083 0.508474
lowerneck -3.09991 15.1078 -1.24687
upperneck 2.45147 20.282 -11.5256
head 2.5164 9.66959 -2.73849
rclavicle -5.88403e-014 -1.11319e-014
rhumerus -66.9093 1.53016 -75.4838
rradius 36.801
rwrist 11.6584
rhand -33.1977 33.3959
rfingers 7.12502
rthumb -6.40511 3.51279
lclavicle -5.88403e-014 -1.11319e-014
lhumerus -46.6967 -6.3871 92.2692
lradius 125.905
lwrist 15.4852
lhand -11.9914 -16.5009
lfingers 7.12502
lthumb 14.0653 13.0031
rfemur -27.045 12.3993 18.6812
rtibia 47.5908
rfoot -4.94961 -5.4843
rtoes -10.5365
lfemur 5.86952 -1.43497 -26.0378
ltibia 41.7756
lfoot -1.57793 -2.18008
ltoes 1.6228
108
root 2.11964 17.8591 -16.0717 -4.60355 204.453 -348.225
lowerback 6.92409 -6.99511 2.03695
upperback 2.71082 -9.28875 0.732783
thorax -1.23466 -4.68585 0.372592
lowerneck -2.97325 15.0692 -1.0164
upperneck 2.6823 20.2415 -11.6277
head 2.61051 9.63825 -2.80704
rclavicle -1.70955e-014 2.54444e-014
rhumerus -67.8948 2.13992 -75.5993
rradius 37.2034
rwrist 10.9601
rhand -32.8957 33.1168
rfingers 7.12502
rthumb -6.1135 3.22503
lclavicle -1.70955e-014 2.54444e-014
lhumerus -47.0287 -7.5395 91.8987
lradius 125.791
lwrist 15.3153
lhand -12.0477 -17.2736
lfingers 7.12502
lthumb 14.0111 12.2342
rfemur -27.1021 13.3026 18.1404
rtibia 44.1185
rfoot -4.60156 -6.0038
rtoes -11.9979
lfemur 5.9935 -1.43749 -25.6798
ltibia 42.2185
lfoot -0.0422535 -2.11306
ltoes 0.831104
